<svg width="24" height="24" viewBox="0 0 24 24" fill="none" xmlns="http://www.w3.org/2000/svg">
<path fill-rule="evenodd" clip-rule="evenodd" d="M9.88322 13.5112C5.27519 13.5112 2.97119 14.8552 2.97119 17.5432C2.97119 19.0792 4.12319 20.2312 5.56319 20.2312H14.2032C15.6432 20.2312 16.6992 19.1752 16.7952 17.5432C16.7952 14.8552 14.4912 13.5112 9.88322 13.5112Z" fill="#1E1E1E"/>
<path fill-rule="evenodd" clip-rule="evenodd" d="M18.2351 13.607C17.7551 13.415 17.1791 13.703 16.9871 14.183C16.7951 14.663 17.0831 15.239 17.5631 15.431C19.0031 15.911 19.1951 16.679 19.1951 17.351C19.1951 17.831 18.9071 18.407 18.2351 18.407C17.6591 18.407 17.2751 18.791 17.2751 19.367C17.2751 19.943 17.6591 20.327 18.2351 20.327C19.8671 20.327 21.1151 19.079 21.1151 17.351C21.2111 16.007 20.7311 14.375 18.2351 13.607Z" fill="#1E1E1E"/>
<path fill-rule="evenodd" clip-rule="evenodd" d="M9.59513 4.19812C11.7158 4.19812 13.4352 5.91748 13.4352 8.03812C13.4352 10.1587 11.7158 11.8781 9.59513 11.8781C7.47449 11.8781 5.75513 10.1587 5.75513 8.03812C5.75513 5.91748 7.47449 4.19812 9.59513 4.19812Z" fill="#1E1E1E"/>
<path fill-rule="evenodd" clip-rule="evenodd" d="M14.8752 10.0543C14.3952 10.2463 14.2032 10.8223 14.3952 11.3023C14.5872 11.6863 14.8752 11.8783 15.2592 11.8783C15.3552 11.8783 15.5472 11.8783 15.6432 11.7823C17.1792 11.1103 18.0432 9.76627 18.0432 8.23027C18.0432 6.59827 17.0832 5.15827 15.5472 4.67827C15.0672 4.48627 14.4912 4.77427 14.2992 5.25427C14.1072 5.73427 14.3952 6.31027 14.8752 6.50227C15.5472 6.79027 16.0272 7.46227 16.0272 8.32627C16.1232 9.38227 15.2592 9.86227 14.8752 10.0543Z" fill="#1E1E1E"/>
</svg>
