<svg width="24" height="24" viewBox="0 0 24 24" fill="none" xmlns="http://www.w3.org/2000/svg">
<path fill-rule="evenodd" clip-rule="evenodd" d="M14.6374 16.5769H9.3644C8.9504 16.5769 8.6144 16.2409 8.6144 15.8269C8.6144 15.4129 8.9504 15.0769 9.3644 15.0769H14.6374C15.0514 15.0769 15.3874 15.4129 15.3874 15.8269C15.3874 16.2409 15.0514 16.5769 14.6374 16.5769ZM19.9194 7.62493L14.3454 3.08593C12.9854 1.97593 11.0124 1.97493 9.6544 3.08493L4.0824 7.62393C3.2114 8.32993 2.7124 9.37693 2.7124 10.4969V17.6769C2.7124 19.9209 4.5384 21.7469 6.7844 21.7469H17.2154C19.4604 21.7469 21.2874 19.9209 21.2874 17.6769V10.4969C21.2874 9.37693 20.7884 8.32993 19.9194 7.62493Z" fill="#841474"/>
</svg>
