<svg width="41" height="40" viewBox="0 0 41 40" fill="none" xmlns="http://www.w3.org/2000/svg">
<path d="M0.368896 19.8997C0.368896 1.63693 7.00333 0 20.2704 0C33.5375 0 40.1702 1.98909 40.1702 19.8997C40.1702 38.0918 33.5375 39.7995 20.2704 39.7995C7.00333 39.7995 0.368896 37.3184 0.368896 19.8997Z" fill="#841474"/>
<path d="M32.3538 19.3046C32.3555 16.9762 31.6846 14.6968 30.4217 12.7406C29.1588 10.7844 27.3576 9.23473 25.2349 8.2779C23.1121 7.32108 20.7582 6.99786 18.4561 7.34712C16.154 7.69639 14.0018 8.70326 12.2584 10.2467C10.5149 11.79 9.25447 13.8042 8.6286 16.047C8.00272 18.2897 8.03808 20.6655 8.7304 22.8886C9.42273 25.1118 10.7425 27.0876 12.5311 28.5784C14.3197 30.0692 16.5009 31.0116 18.8124 31.2922V35.973L27.7314 28.797C27.8482 28.7068 27.965 28.6201 28.0853 28.5192L28.4039 28.2644H28.3667C29.6231 27.1345 30.6274 25.7528 31.3144 24.2091C32.0013 22.6653 32.3554 20.9943 32.3538 19.3046ZM20.3644 26.1213C19.4727 26.123 18.5896 25.9485 17.7656 25.6078C16.9417 25.267 16.1932 24.7668 15.5633 24.1358L16.7631 22.9359C17.7186 23.8896 19.0135 24.4252 20.3635 24.4252C21.7135 24.4252 23.0083 23.8896 23.9638 22.9359L25.1636 24.1358C24.534 24.7666 23.7858 25.2668 22.9622 25.6076C22.1386 25.9483 21.2557 26.1229 20.3644 26.1213Z" fill="white"/>
</svg>
