<svg width="91" height="40" viewBox="0 0 91 40" fill="none" xmlns="http://www.w3.org/2000/svg">
<g clip-path="url(#clip0_3_943)">
<path d="M65.1876 23.832H62.3859V18.9676C62.409 17.4392 62.0217 15.9329 61.2652 14.6094C60.5057 13.2941 59.4187 12.2029 58.1123 11.4445C56.7923 10.6612 55.287 10.254 53.7565 10.2662H49.7742C49.2702 10.2682 48.7876 10.472 48.4319 10.833C48.0762 11.194 47.8765 11.6828 47.8765 12.1923C47.8765 12.7018 48.0762 13.1906 48.4319 13.5516C48.7876 13.9126 49.2702 14.1164 49.7742 14.1184H53.7191C54.5654 14.1112 55.3974 14.3384 56.1249 14.7755C56.8465 15.1994 57.4465 15.8059 57.8657 16.5355C58.2969 17.2711 58.5192 18.1126 58.5082 18.9676V23.832H42.0713L41.3914 25.7808L42.0713 27.6842H65.2325L65.89 25.7808L65.1876 23.832Z" fill="#1E041C"/>
<path d="M49.5052 35.4262H53.6967V37.2919C53.6961 37.5669 53.759 37.8383 53.8804 38.0844C54.0018 38.3305 54.1783 38.5446 54.396 38.7096C54.6136 38.8746 54.8664 38.986 55.1341 39.035C55.4018 39.0839 55.6771 39.0689 55.9381 38.9914C56.3018 38.8838 56.6213 38.6601 56.8488 38.3538C57.0764 38.0475 57.1999 37.675 57.2007 37.2919V32.1329H49.5052C49.0733 32.1329 48.659 32.3064 48.3535 32.6152C48.0481 32.924 47.8765 33.3428 47.8765 33.7796C47.8755 33.9961 47.9169 34.2106 47.9984 34.4109C48.08 34.6111 48.1999 34.793 48.3513 34.9461C48.5028 35.0992 48.6827 35.2205 48.8808 35.3029C49.0788 35.3853 49.2911 35.4272 49.5052 35.4262Z" fill="#841474"/>
<path d="M21.7119 11.6407H15.6974C14.7896 11.6407 14.0537 12.383 14.0537 13.2986C14.0537 14.2143 14.7896 14.9566 15.6974 14.9566H21.7119C22.6196 14.9566 23.3556 14.2143 23.3556 13.2986C23.3556 12.383 22.6196 11.6407 21.7119 11.6407Z" fill="#1E041C"/>
<path d="M42.7513 25.7878L42.049 27.6837C40.7722 27.6855 39.5129 27.3843 38.3723 26.8045C37.2317 26.2246 36.2416 25.3823 35.4816 24.3451C34.8047 25.2178 33.9707 25.9534 33.0236 26.5129C31.7133 27.2925 30.2179 27.6972 28.6976 27.6837H8.65197C7.13166 27.6972 5.63633 27.2925 4.32605 26.5129C3.02081 25.7496 1.9343 24.6564 1.17314 23.3405C0.39709 22.0172 -0.00837973 20.5055 0.00013128 18.9671V14.2916C0.00013128 13.7748 0.203218 13.2791 0.564716 12.9136C0.926213 12.5482 1.41651 12.3428 1.92774 12.3428C2.43898 12.3428 2.92927 12.5482 3.29077 12.9136C3.65227 13.2791 3.85535 13.7748 3.85535 14.2916V18.9671C3.85041 19.8214 4.06982 20.6616 4.49117 21.4021C4.91252 22.1426 5.52072 22.7568 6.25366 23.1819C6.97883 23.618 7.80821 23.8453 8.65197 23.839H28.5034C29.3292 23.8505 30.1459 23.6642 30.8867 23.2952C31.6733 22.8863 32.333 22.2659 32.7931 21.5022C33.2532 20.7385 33.4958 19.8613 33.4943 18.9671V14.2765C33.4943 13.7637 33.6958 13.2718 34.0545 12.9092C34.4132 12.5466 34.8996 12.3428 35.4069 12.3428C35.6612 12.3378 35.914 12.3841 36.1503 12.479C36.3867 12.574 36.602 12.7156 36.7836 12.8957C36.9652 13.0757 37.1094 13.2906 37.2079 13.5277C37.3063 13.7648 37.357 14.0194 37.3569 14.2765V18.9671C37.3678 19.826 37.594 20.668 38.0144 21.4144C38.4221 22.1446 39.012 22.754 39.7254 23.1819C40.4368 23.6182 41.2543 23.8457 42.0863 23.839L42.7513 25.7878Z" fill="#1E041C"/>
<path d="M68.7067 32.2687H62.6923C61.7845 32.2687 61.0486 33.011 61.0486 33.9266C61.0486 34.8423 61.7845 35.5846 62.6923 35.5846H68.7067C69.6145 35.5846 70.3504 34.8423 70.3504 33.9266C70.3504 33.011 69.6145 32.2687 68.7067 32.2687Z" fill="#1E041C"/>
<path d="M71.8671 12.3429C71.6136 12.3419 71.3625 12.3916 71.1282 12.4892C70.8939 12.5868 70.681 12.7303 70.5018 12.9115C70.3226 13.0926 70.1807 13.3078 70.0842 13.5447C69.9876 13.7816 69.9385 14.0355 69.9394 14.2917V18.9672C69.9459 19.8182 69.7303 20.6559 69.3145 21.3958C68.8987 22.1357 68.2974 22.7518 67.571 23.1819C66.8434 23.6179 66.011 23.8426 65.1652 23.8315H65.098L64.4854 25.7803L65.0009 27.6837H65.1354C66.6631 27.6999 68.1663 27.2952 69.4837 26.513C70.7861 25.7427 71.8716 24.6479 72.6366 23.333C73.4112 22.0122 73.8142 20.5026 73.8021 18.9672V14.2917C73.8031 14.0361 73.7542 13.7829 73.6581 13.5465C73.5621 13.3101 73.4208 13.0952 73.2424 12.9141C73.064 12.7331 72.852 12.5894 72.6185 12.4914C72.3851 12.3934 72.1348 12.3429 71.882 12.3429H71.8671Z" fill="#1E041C"/>
<path d="M82.2224 2.68967C82.2224 1.6134 81.3594 0.740906 80.2948 0.740906C79.2302 0.740906 78.3672 1.6134 78.3672 2.68967V25.7349C78.3672 26.8112 79.2302 27.6837 80.2948 27.6837C81.3594 27.6837 82.2224 26.8112 82.2224 25.7349V2.68967Z" fill="#1E041C"/>
<path d="M88.9916 16.4219C88.7372 16.4209 88.4852 16.4708 88.2499 16.5688C88.0147 16.6667 87.801 16.8108 87.6211 16.9927C87.4412 17.1745 87.2987 17.3906 87.2018 17.6284C87.1049 17.8662 87.0555 18.121 87.0565 18.3782V23.3559C87.0565 23.4012 87.0565 23.4389 87.0565 23.4843V26.7851C87.0372 27.8228 86.7778 28.8415 86.2991 29.7597C85.8203 30.6778 85.1356 31.4699 84.2996 32.0724C83.9982 32.3122 83.78 32.6427 83.6766 33.0161C83.5732 33.3894 83.5899 33.7864 83.7243 34.1496C83.8269 34.4098 83.988 34.6424 84.1948 34.8288C84.4017 35.0153 84.6486 35.1505 84.9161 35.2238C85.1835 35.297 85.4642 35.3064 85.7359 35.251C86.0075 35.1957 86.2627 35.0772 86.4812 34.9049C89.4399 32.6339 90.9167 29.9121 90.9118 26.7397V23.4012V18.3782C90.9127 18.1223 90.8639 17.8687 90.7679 17.6319C90.6719 17.3951 90.5308 17.1797 90.3525 16.998C90.1742 16.8163 89.9622 16.672 89.7287 16.5731C89.4952 16.4743 89.2448 16.4229 88.9916 16.4219Z" fill="#1E041C"/>
<path d="M88.9916 13.3024C88.4803 13.3024 87.99 13.5078 87.6286 13.8732C87.2671 14.2387 87.064 14.7344 87.064 15.2512V21.6489C87.064 21.9058 87.114 22.1602 87.2113 22.3975C87.3085 22.6349 87.4511 22.8505 87.6307 23.0322C87.8104 23.2139 88.0238 23.358 88.2585 23.4563C88.4933 23.5546 88.7449 23.6052 88.9991 23.6052C89.5123 23.6052 90.0045 23.3991 90.3674 23.0322C90.7303 22.6653 90.9341 22.1677 90.9341 21.6489V16.6637C90.9382 16.6235 90.9382 16.583 90.9341 16.5428V15.2512C90.9351 14.9937 90.8855 14.7386 90.788 14.5007C90.6906 14.2629 90.5473 14.0469 90.3665 13.8656C90.1857 13.6842 89.9711 13.541 89.735 13.4444C89.499 13.3477 89.2462 13.2994 88.9916 13.3024Z" fill="#1E041C"/>
</g>
<defs>
<clipPath id="clip0_3_943">
<rect width="90.934" height="38.3181" fill="white" transform="translate(0 0.740723)"/>
</clipPath>
</defs>
</svg>
