<svg width="24" height="24" viewBox="0 0 24 24" fill="none" xmlns="http://www.w3.org/2000/svg">
<path fill-rule="evenodd" clip-rule="evenodd" d="M12.0485 15.4073C11.9525 15.2153 11.7605 15.2153 11.5685 15.2153C8.59254 15.2153 6.96054 16.4633 6.28854 17.9033C4.65654 16.3673 3.79254 14.3513 3.79254 12.1433C3.79254 10.8953 4.08054 9.7433 4.56054 8.6873C4.75254 8.3033 4.56054 7.9193 4.27254 7.7273C3.88854 7.5353 3.50454 7.72729 3.31254 8.01529C2.64054 9.26329 2.35254 10.6073 2.35254 12.0473C2.35254 15.1193 3.88854 17.9993 6.38454 19.7273C7.92054 20.7833 9.7445 21.3593 11.6645 21.3593C13.1045 21.3593 14.4485 21.0713 15.6965 20.3993C15.8885 20.3033 16.0805 20.1113 16.0805 19.9193C16.0805 19.7273 16.0805 19.4393 15.8885 19.2473L12.0485 15.4073Z" fill="#1E1E1E"/>
<path fill-rule="evenodd" clip-rule="evenodd" d="M18.7684 18.192C20.2084 16.464 20.9764 14.352 20.9764 12.048C20.9764 6.864 16.7524 2.64 11.5684 2.64C9.26435 2.64 7.15235 3.408 5.42435 4.848L4.08035 3.504C3.79235 3.216 3.31235 3.216 3.02435 3.504C2.73635 3.792 2.73635 4.272 3.02435 4.56L18.7684 20.304C18.8644 20.4 19.0564 20.496 19.2484 20.496C19.4404 20.496 19.6324 20.4 19.7284 20.304C20.0164 20.016 20.0164 19.536 19.7284 19.248L18.7684 18.192ZM14.0644 13.392C14.9284 12.72 15.5044 11.568 15.5044 10.416C15.5044 8.304 13.7764 6.576 11.6644 6.576C10.5124 6.576 9.36035 7.152 8.68835 8.016L6.67235 6C8.11235 4.848 9.93636 4.176 11.7604 4.176C16.0804 4.176 19.6324 7.728 19.6324 12.048C19.6324 13.872 18.9604 15.696 17.8084 17.136L14.0644 13.392Z" fill="#1E1E1E"/>
</svg>
