<svg width="24" height="24" viewBox="0 0 24 24" fill="none" xmlns="http://www.w3.org/2000/svg">
<path fill-rule="evenodd" clip-rule="evenodd" d="M20.6769 17.8462L13.5896 4.82916C13.5894 4.82877 13.5891 4.8284 13.5888 4.82808C13.5885 4.82777 13.5882 4.8274 13.588 4.82701C13.227 4.16592 12.5619 3.76968 11.8094 3.76968C11.0568 3.76968 10.3905 4.16616 10.0286 4.82856L2.94093 17.8462C2.55117 18.5624 2.61645 19.4091 3.11085 20.0571C3.60429 20.7022 4.39629 20.9864 5.18925 20.7992L10.8104 19.4604C10.9839 19.4191 11.1061 19.2636 11.1054 19.0852L11.0683 10.6673C11.0664 10.2699 11.387 9.94636 11.7854 9.94444H11.7883C12.1848 9.94444 12.5064 10.2651 12.5083 10.6616L12.5454 19.0965C12.5461 19.2737 12.668 19.4274 12.8405 19.4684L18.4296 20.7992C18.5899 20.8376 18.7502 20.8558 18.9086 20.8558C19.5288 20.8558 20.1134 20.5707 20.5051 20.058C21.0014 19.41 21.0667 18.5633 20.6769 17.8462Z" fill="#1E1E1E"/>
</svg>
