<svg width="24" height="24" viewBox="0 0 24 24" fill="none" xmlns="http://www.w3.org/2000/svg">
<g clip-path="url(#clip0_3_1046)">
<path fill-rule="evenodd" clip-rule="evenodd" d="M12.4615 18.1193C11.7011 18.1193 10.9456 18.0262 10.217 17.8409C9.7869 17.7325 9.44994 17.3609 9.3357 16.8723C9.2013 16.2934 8.8461 15.8134 8.33347 15.5168C7.86594 15.247 7.31971 15.1664 6.79171 15.2902C6.30595 15.4073 5.82306 15.2691 5.53314 14.9321C4.78722 14.0605 4.22083 13.0765 3.84835 12.0061C3.68323 11.5318 3.85986 10.9913 4.29954 10.6304C4.78914 10.2281 5.06946 9.63391 5.06946 8.99935C5.06946 8.36575 4.78914 7.77151 4.29954 7.36927C3.85986 7.00826 3.68323 6.46778 3.84835 5.99354C4.22083 4.92218 4.78818 3.93818 5.53314 3.06842C5.8221 2.7305 6.30594 2.59322 6.79363 2.70938C7.31875 2.83322 7.86594 2.75162 8.33347 2.48186C8.8461 2.18618 9.2013 1.70618 9.33474 1.12922C9.44994 0.6377 9.78691 0.267139 10.2179 0.157699C11.6733 -0.210941 13.2467 -0.211901 14.7059 0.157699C15.137 0.267139 15.4739 0.63866 15.5872 1.12922C15.7207 1.70522 16.0768 2.18618 16.5895 2.48186C17.0579 2.75354 17.6042 2.83322 18.1303 2.70938C18.616 2.59226 19.0999 2.7305 19.3888 3.06746C20.1328 3.93626 20.6992 4.92026 21.0736 5.99354C21.2397 6.46778 21.0621 7.00826 20.6224 7.36927C20.1338 7.77247 19.8535 8.36671 19.8535 8.99935C19.8535 9.63295 20.1338 10.2272 20.6234 10.6313C21.0621 10.9913 21.2397 11.5318 21.0746 12.0061C20.6992 13.0793 20.1328 14.0633 19.3898 14.9312C19.0999 15.2681 18.6189 15.4045 18.1283 15.2902C17.6023 15.1673 17.057 15.247 16.5895 15.5168C16.0768 15.8134 15.7207 16.2944 15.5872 16.8704C15.4739 17.36 15.137 17.7325 14.705 17.8409C13.9773 18.0262 13.2208 18.1193 12.4615 18.1193ZM9.87042 9.00069C9.87042 7.56933 11.0311 6.40864 12.4624 6.40864C13.8938 6.40864 15.0544 7.56933 15.0544 9.00069C15.0544 10.4321 13.8938 11.5927 12.4624 11.5927C11.0311 11.5927 9.87042 10.4321 9.87042 9.00069Z" fill="#1E1E1E"/>
</g>
<defs>
<clipPath id="clip0_3_1046">
<rect width="24" height="24" fill="white"/>
</clipPath>
</defs>
</svg>
