<svg width="24" height="24" viewBox="0 0 24 24" fill="none" xmlns="http://www.w3.org/2000/svg">
<path fill-rule="evenodd" clip-rule="evenodd" d="M17.0385 11.3009H13.6718C13.236 11.3009 12.8817 10.9476 12.8817 10.5118C12.8817 10.075 13.236 9.7217 13.6718 9.7217H17.0385C17.4744 9.7217 17.8276 10.075 17.8276 10.5118C17.8276 10.9476 17.4744 11.3009 17.0385 11.3009ZM17.0385 14.8616H14.9428C14.507 14.8616 14.1537 14.5083 14.1537 14.0724C14.1537 13.6356 14.507 13.2824 14.9428 13.2824H17.0385C17.4744 13.2824 17.8276 13.6356 17.8276 14.0724C17.8276 14.5083 17.4744 14.8616 17.0385 14.8616ZM11.9755 16.2382L5.83243 16.2468C5.73739 16.2468 5.64619 16.2094 5.57899 16.1432C5.51275 16.076 5.47531 15.9848 5.47531 15.8907C5.47531 14.5918 6.53515 13.2824 8.90347 13.2824C11.2718 13.2824 12.3326 14.588 12.3326 15.882C12.3326 16.0788 12.1732 16.2382 11.9755 16.2382ZM8.90347 7.73067C10.1304 7.73067 11.1278 8.72811 11.1278 9.95499C11.1278 11.1819 10.1304 12.1803 8.90347 12.1803C7.67659 12.1803 6.67915 11.1819 6.67915 9.95499C6.67915 8.72811 7.67659 7.73067 8.90347 7.73067ZM16.3684 4.12875H6.96043C4.36843 4.12875 2.54443 6.04875 2.54443 8.73675V15.2648C2.54443 17.9528 4.36843 19.8728 6.96043 19.8728H16.3684C18.9604 19.8728 20.7844 17.9528 20.7844 15.2648V8.73675C20.7844 6.04875 18.9604 4.12875 16.3684 4.12875Z" fill="#1E1E1E"/>
</svg>
